<?xml version="1.0" encoding="UTF-8"?>
<svg id="Layer_1" data-name="Layer 1" xmlns="http://www.w3.org/2000/svg" viewBox="0 0 448 448">
  <defs>
    <style>
      .cls-1 {
        fill: #f9f9f6;
      }
    </style>
  </defs>
  <path class="cls-1" d="M412.17,0H38.28C17.85,0,0,14.7,0,34.89v374.72c0,20.3,17.85,38.39,38.28,38.39h373.78c20.54,0,35.94-18.21,35.94-38.39V34.89c.12-20.19-15.4-34.89-35.83-34.89ZM138.87,373.43h-64.18v-199.55h64.18v199.55ZM109,143.54h-.46c-20.54,0-33.84-15.29-33.84-34.43s13.65-34.42,34.65-34.42,33.85,14.82,34.31,34.42c-.01,19.14-13.31,34.43-34.66,34.43ZM373.43,373.43h-64.18v-109.11c0-26.14-9.34-44-32.56-44-17.74,0-28.24,12-32.91,23.69-1.75,4.2-2.22,9.92-2.22,15.76v113.66h-64.18v-199.55h64.18v27.77c9.34-13.3,23.93-32.44,57.88-32.44,42.13,0,74,27.77,74,87.64v116.58Z"/>
</svg>